<mxfile host="app.diagrams.net" modified="2023-04-28T16:49:39.229Z" agent="Mozilla/5.0 (Windows NT 10.0; Win64; x64) AppleWebKit/537.36 (KHTML, like Gecko) Chrome/112.0.0.0 Safari/537.36" etag="gU0c582s8Fnjb0dL4cLE" version="21.2.3" type="device">
  <diagram name="Страница 1" id="AdXKdmV-SsOITaSFNNia">
    <mxGraphModel dx="1094" dy="593" grid="1" gridSize="10" guides="1" tooltips="1" connect="1" arrows="1" fold="1" page="1" pageScale="1" pageWidth="827" pageHeight="1169" math="0" shadow="0">
      <root>
        <mxCell id="0" />
        <mxCell id="1" parent="0" />
        <mxCell id="wJq64bYvRyntcDXfF7fz-17" style="edgeStyle=orthogonalEdgeStyle;rounded=0;orthogonalLoop=1;jettySize=auto;html=1;entryX=0.102;entryY=0.779;entryDx=0;entryDy=0;entryPerimeter=0;" edge="1" parent="1" source="wJq64bYvRyntcDXfF7fz-10" target="wJq64bYvRyntcDXfF7fz-12">
          <mxGeometry relative="1" as="geometry" />
        </mxCell>
        <mxCell id="wJq64bYvRyntcDXfF7fz-18" style="edgeStyle=orthogonalEdgeStyle;rounded=0;orthogonalLoop=1;jettySize=auto;html=1;" edge="1" parent="1" source="wJq64bYvRyntcDXfF7fz-10" target="wJq64bYvRyntcDXfF7fz-14">
          <mxGeometry relative="1" as="geometry" />
        </mxCell>
        <mxCell id="wJq64bYvRyntcDXfF7fz-19" style="edgeStyle=orthogonalEdgeStyle;rounded=0;orthogonalLoop=1;jettySize=auto;html=1;entryX=0.5;entryY=1;entryDx=0;entryDy=0;" edge="1" parent="1" source="wJq64bYvRyntcDXfF7fz-10" target="wJq64bYvRyntcDXfF7fz-15">
          <mxGeometry relative="1" as="geometry" />
        </mxCell>
        <mxCell id="wJq64bYvRyntcDXfF7fz-20" style="edgeStyle=orthogonalEdgeStyle;rounded=0;orthogonalLoop=1;jettySize=auto;html=1;entryX=0.5;entryY=0;entryDx=0;entryDy=0;" edge="1" parent="1" source="wJq64bYvRyntcDXfF7fz-10" target="wJq64bYvRyntcDXfF7fz-13">
          <mxGeometry relative="1" as="geometry" />
        </mxCell>
        <mxCell id="wJq64bYvRyntcDXfF7fz-21" style="edgeStyle=orthogonalEdgeStyle;rounded=0;orthogonalLoop=1;jettySize=auto;html=1;entryX=0.5;entryY=0;entryDx=0;entryDy=0;" edge="1" parent="1" source="wJq64bYvRyntcDXfF7fz-10" target="wJq64bYvRyntcDXfF7fz-16">
          <mxGeometry relative="1" as="geometry" />
        </mxCell>
        <mxCell id="wJq64bYvRyntcDXfF7fz-10" value="User" style="shape=umlActor;verticalLabelPosition=bottom;verticalAlign=top;html=1;outlineConnect=0;" vertex="1" parent="1">
          <mxGeometry x="80" y="80" width="30" height="60" as="geometry" />
        </mxCell>
        <mxCell id="wJq64bYvRyntcDXfF7fz-24" style="edgeStyle=orthogonalEdgeStyle;rounded=0;orthogonalLoop=1;jettySize=auto;html=1;entryX=0.5;entryY=1;entryDx=0;entryDy=0;" edge="1" parent="1" source="wJq64bYvRyntcDXfF7fz-11" target="wJq64bYvRyntcDXfF7fz-22">
          <mxGeometry relative="1" as="geometry" />
        </mxCell>
        <mxCell id="wJq64bYvRyntcDXfF7fz-25" style="edgeStyle=orthogonalEdgeStyle;rounded=0;orthogonalLoop=1;jettySize=auto;html=1;entryX=0.5;entryY=0;entryDx=0;entryDy=0;" edge="1" parent="1" source="wJq64bYvRyntcDXfF7fz-11" target="wJq64bYvRyntcDXfF7fz-23">
          <mxGeometry relative="1" as="geometry" />
        </mxCell>
        <mxCell id="wJq64bYvRyntcDXfF7fz-27" style="edgeStyle=orthogonalEdgeStyle;rounded=0;orthogonalLoop=1;jettySize=auto;html=1;entryX=0.012;entryY=0.576;entryDx=0;entryDy=0;entryPerimeter=0;" edge="1" parent="1" source="wJq64bYvRyntcDXfF7fz-11" target="wJq64bYvRyntcDXfF7fz-26">
          <mxGeometry relative="1" as="geometry" />
        </mxCell>
        <mxCell id="wJq64bYvRyntcDXfF7fz-11" value="Admin" style="shape=umlActor;verticalLabelPosition=bottom;verticalAlign=top;html=1;outlineConnect=0;" vertex="1" parent="1">
          <mxGeometry x="80" y="290" width="30" height="60" as="geometry" />
        </mxCell>
        <mxCell id="wJq64bYvRyntcDXfF7fz-12" value="регистрация авторизация" style="ellipse;whiteSpace=wrap;html=1;" vertex="1" parent="1">
          <mxGeometry x="160" y="20" width="90" height="60" as="geometry" />
        </mxCell>
        <mxCell id="wJq64bYvRyntcDXfF7fz-13" value="просмотр рецептов" style="ellipse;whiteSpace=wrap;html=1;" vertex="1" parent="1">
          <mxGeometry x="369" y="150" width="90" height="60" as="geometry" />
        </mxCell>
        <mxCell id="wJq64bYvRyntcDXfF7fz-14" value="просмотр тренировок" style="ellipse;whiteSpace=wrap;html=1;" vertex="1" parent="1">
          <mxGeometry x="290" width="90" height="60" as="geometry" />
        </mxCell>
        <mxCell id="wJq64bYvRyntcDXfF7fz-15" value="составление расписания тренировок" style="ellipse;whiteSpace=wrap;html=1;" vertex="1" parent="1">
          <mxGeometry x="400" y="30" width="90" height="60" as="geometry" />
        </mxCell>
        <mxCell id="wJq64bYvRyntcDXfF7fz-16" value="добавление\удаление тренировок в избранное" style="ellipse;whiteSpace=wrap;html=1;" vertex="1" parent="1">
          <mxGeometry x="160" y="150" width="150" height="60" as="geometry" />
        </mxCell>
        <mxCell id="wJq64bYvRyntcDXfF7fz-22" value="создание удаление тренировок" style="ellipse;whiteSpace=wrap;html=1;" vertex="1" parent="1">
          <mxGeometry x="170" y="230" width="105" height="70" as="geometry" />
        </mxCell>
        <mxCell id="wJq64bYvRyntcDXfF7fz-23" value="создание удаление рецептов" style="ellipse;whiteSpace=wrap;html=1;" vertex="1" parent="1">
          <mxGeometry x="170" y="350" width="105" height="70" as="geometry" />
        </mxCell>
        <mxCell id="wJq64bYvRyntcDXfF7fz-26" value="редактирование удаление тренировок" style="ellipse;whiteSpace=wrap;html=1;" vertex="1" parent="1">
          <mxGeometry x="290" y="280" width="120" height="70" as="geometry" />
        </mxCell>
      </root>
    </mxGraphModel>
  </diagram>
</mxfile>
